<svg width="18" height="14" viewBox="0 0 18 14" fill="none" xmlns="http://www.w3.org/2000/svg">
<path fill-rule="evenodd" clip-rule="evenodd" d="M1.54346 0C1.15126 0 0.833313 0.298477 0.833313 0.666667V13.3333C0.833313 13.7015 1.15126 14 1.54346 14H16.4565C16.8487 14 17.1666 13.7015 17.1666 13.3333V0.666667C17.1666 0.298477 16.8487 0 16.4565 0H1.54346ZM2.96375 2V4H7.93476V2H2.96375ZM10.0652 2V4H15.0362V2H10.0652ZM7.93476 6H2.96375V8H7.93476V6ZM10.0652 8V6H15.0362V8H10.0652ZM7.93476 10H2.96375V12H7.93476V10ZM10.0652 12V10H15.0362V12H10.0652Z" fill="white"/>
</svg>
