<svg width="25" height="27" viewBox="0 0 25 27" fill="none" xmlns="http://www.w3.org/2000/svg">
<g filter="url(#filter0_d_71_470)">
<path fill-rule="evenodd" clip-rule="evenodd" d="M18.8334 5.83333C18.3958 5.83344 17.9659 5.71869 17.5865 5.50055C17.2072 5.28241 16.8917 4.96852 16.6717 4.59025C16.4517 4.21199 16.3349 3.7826 16.3328 3.34502C16.3308 2.90743 16.4436 2.47697 16.6601 2.09667C16.4041 2.04482 16.1457 2.00533 15.8859 1.97833C14.9342 1.875 13.7351 1.875 12.2042 1.875H12.1292C10.5984 1.875 9.39925 1.875 8.44675 1.97833C7.47591 2.08333 6.68841 2.30167 6.01675 2.79C5.60999 3.08553 5.25228 3.44324 4.95675 3.85C4.46841 4.5225 4.25008 5.30833 4.14508 6.28C4.04175 7.2325 4.04175 8.43167 4.04175 9.9625V10.0375C4.04175 11.5683 4.04175 12.7675 4.14508 13.7192C4.25008 14.6908 4.46841 15.4775 4.95675 16.15C5.25228 16.5568 5.60999 16.9145 6.01675 17.21C6.68925 17.6983 7.47508 17.9167 8.44675 18.0217C9.39925 18.125 10.5984 18.125 12.1292 18.125H12.2042C13.7351 18.125 14.9342 18.125 15.8859 18.0217C16.8576 17.9167 17.6442 17.6983 18.3167 17.21C18.7235 16.9145 19.0812 16.5568 19.3767 16.15C19.8651 15.4775 20.0834 14.6917 20.1884 13.72C20.2917 12.7675 20.2917 11.5683 20.2917 10.0375V9.9625C20.2917 8.43167 20.2917 7.2325 20.1884 6.28C20.1614 6.02048 20.1219 5.7624 20.0701 5.50667C19.7051 5.715 19.2834 5.83333 18.8334 5.83333ZM16.6084 7.05833C16.7571 7.13134 16.8707 7.26038 16.9243 7.4171C16.9779 7.57382 16.9671 7.74541 16.8942 7.89417L15.6776 10.375C14.8251 12.1125 12.3209 12.0275 11.5884 10.2367C11.2634 9.44417 10.1551 9.40667 9.77841 10.175L8.56175 12.6558C8.52563 12.7295 8.47536 12.7954 8.41379 12.8497C8.35222 12.904 8.28056 12.9456 8.20291 12.9722C8.12525 12.9987 8.04313 13.0098 7.96121 13.0046C7.8793 12.9994 7.7992 12.9782 7.7255 12.9421C7.65179 12.906 7.58592 12.8557 7.53165 12.7941C7.47738 12.7326 7.43576 12.6609 7.40918 12.5832C7.3826 12.5056 7.37157 12.4235 7.37673 12.3415C7.38189 12.2596 7.40313 12.1795 7.43925 12.1058L8.65591 9.625C9.50841 7.8875 12.0126 7.9725 12.7451 9.76333C13.0701 10.5558 14.1784 10.5933 14.5551 9.825L15.7717 7.34417C15.8078 7.27037 15.8581 7.20441 15.9197 7.15006C15.9813 7.09571 16.053 7.05403 16.1307 7.02741C16.2084 7.00078 16.2906 6.98974 16.3725 6.9949C16.4545 7.00006 16.5347 7.02134 16.6084 7.0575V7.05833Z" fill="white"/>
<path d="M17.1667 3.33329C17.1667 3.77532 17.3423 4.19924 17.6549 4.5118C17.9675 4.82436 18.3914 4.99996 18.8334 4.99996C19.2754 4.99996 19.6994 4.82436 20.0119 4.5118C20.3245 4.19924 20.5001 3.77532 20.5001 3.33329C20.5001 2.89127 20.3245 2.46734 20.0119 2.15478C19.6994 1.84222 19.2754 1.66663 18.8334 1.66663C18.3914 1.66663 17.9675 1.84222 17.6549 2.15478C17.3423 2.46734 17.1667 2.89127 17.1667 3.33329Z" fill="white"/>
</g>
<defs>
<filter id="filter0_d_71_470" x="-1.83325" y="0" width="28" height="28" filterUnits="userSpaceOnUse" color-interpolation-filters="sRGB">
<feFlood flood-opacity="0" result="BackgroundImageFix"/>
<feColorMatrix in="SourceAlpha" type="matrix" values="0 0 0 0 0 0 0 0 0 0 0 0 0 0 0 0 0 0 127 0" result="hardAlpha"/>
<feOffset dy="4"/>
<feGaussianBlur stdDeviation="2"/>
<feComposite in2="hardAlpha" operator="out"/>
<feColorMatrix type="matrix" values="0 0 0 0 0 0 0 0 0 0 0 0 0 0 0 0 0 0 0.25 0"/>
<feBlend mode="normal" in2="BackgroundImageFix" result="effect1_dropShadow_71_470"/>
<feBlend mode="normal" in="SourceGraphic" in2="effect1_dropShadow_71_470" result="shape"/>
</filter>
</defs>
</svg>
